<svg width="153" height="36" viewBox="0 0 153 36" fill="none" xmlns="http://www.w3.org/2000/svg">
<g clip-path="url(#clip0_4475_119932)">
<path d="M37.8994 0L0 18.0154L37.9206 36L19.3375 18.0051L37.8994 0Z" fill="#00C1E6"/>
<path d="M37.9004 0L75.821 17.9845L37.9216 36L56.4835 17.9948L37.9004 0Z" fill="#00C1E6"/>
<path d="M130.603 17.3664C130.635 18.4864 130.321 19.5902 129.703 20.5366C129.084 21.483 128.189 22.2292 127.13 22.6797C126.072 23.1302 124.9 23.2647 123.762 23.0659C122.625 22.8671 121.574 22.344 120.745 21.5636C119.916 20.7832 119.346 19.7808 119.107 18.6845C118.868 17.5882 118.972 16.4479 119.405 15.4091C119.838 14.3704 120.581 13.4804 121.539 12.853C122.496 12.2255 123.625 11.8891 124.781 11.8866C126.299 11.8754 127.761 12.444 128.851 13.4694C129.94 14.4948 130.57 15.8947 130.603 17.3664ZM130.539 9.99133V11.9587C128.999 10.4714 126.912 9.63777 124.738 9.64112C123.701 9.64112 122.675 9.83909 121.717 10.2237C120.759 10.6083 119.889 11.172 119.156 11.8827C118.423 12.5934 117.841 13.4371 117.445 14.3656C117.048 15.2941 116.844 16.2893 116.844 17.2943C116.844 18.2994 117.048 19.2946 117.445 20.2231C117.841 21.1516 118.423 21.9953 119.156 22.706C119.889 23.4167 120.759 23.9804 121.717 24.365C122.675 24.7496 123.701 24.9476 124.738 24.9476C125.813 24.9596 126.88 24.7656 127.877 24.3767C128.875 23.9878 129.783 23.4117 130.55 22.6815C130.55 23.969 130.55 28.4909 124.844 28.4909C122.863 28.5007 120.93 27.8942 119.33 26.7604L119.203 29.3458C120.933 30.2603 122.873 30.7385 124.844 30.7364C125.921 30.7882 126.997 30.6328 128.011 30.2792C129.025 29.9256 129.956 29.3808 130.752 28.6763C131.473 27.9241 132.032 27.0404 132.397 26.0766C132.761 25.1128 132.925 24.0882 132.877 23.0626V9.99133H130.539Z" fill="white"/>
<path d="M150.736 17.3559C150.77 18.4763 150.459 19.581 149.841 20.5287C149.224 21.4765 148.329 22.2242 147.271 22.6763C146.214 23.1284 145.04 23.2644 143.902 23.0668C142.764 22.8692 141.713 22.347 140.883 21.5671C140.052 20.7871 139.481 19.7848 139.241 18.6882C139.002 17.5917 139.105 16.4509 139.538 15.4115C139.971 14.3722 140.713 13.4816 141.671 12.8536C142.629 12.2257 143.758 11.8889 144.914 11.8864C146.431 11.8725 147.893 12.4388 148.983 13.4625C150.073 14.4863 150.703 15.8851 150.736 17.3559ZM150.673 9.98081V11.9482C149.909 11.2131 149.004 10.631 148.009 10.2351C147.013 9.83924 145.947 9.63732 144.871 9.64089C143.811 9.60316 142.754 9.77306 141.763 10.1404C140.772 10.5078 139.867 11.0651 139.103 11.779C138.339 12.4929 137.731 13.3488 137.316 14.2955C136.901 15.2422 136.688 16.2603 136.688 17.289C136.688 18.3176 136.901 19.3357 137.316 20.2824C137.731 21.2292 138.339 22.085 139.103 22.799C139.867 23.5129 140.772 24.0702 141.763 24.4375C142.754 24.8049 143.811 24.9748 144.871 24.937C145.947 24.9396 147.012 24.7362 148.005 24.3384C148.999 23.9407 149.902 23.3565 150.662 22.6194C150.662 23.907 150.662 28.4289 144.956 28.4289C142.973 28.449 141.037 27.8414 139.442 26.6984L139.315 29.2941C141.049 30.1993 142.987 30.6735 144.956 30.6744C146.033 30.7261 147.109 30.5707 148.123 30.2171C149.137 29.8636 150.068 29.3188 150.864 28.6143C151.585 27.8624 152.145 26.9787 152.509 26.0148C152.874 25.0509 153.037 24.0262 152.989 23.0005V9.98081H150.673Z" fill="white"/>
<path d="M80.0273 4.625V6.83959H87.6242V25.9469H89.9723L89.9617 6.83959L97.548 6.82929V4.625H80.0273Z" fill="white"/>
<path d="M105.283 24.1132C104.035 24.1355 102.809 23.7982 101.759 23.144C100.71 22.4897 99.884 21.5481 99.3871 20.4383C98.8902 19.3286 98.7444 18.1008 98.9681 16.9107C99.1919 15.7205 99.7753 14.6216 100.644 13.7532C101.513 12.8849 102.628 12.2862 103.848 12.0331C105.069 11.78 106.339 11.8839 107.498 12.3316C108.658 12.7793 109.654 13.5507 110.36 14.5479C111.067 15.5451 111.452 16.7233 111.467 17.9329C111.5 18.7375 111.364 19.5402 111.068 20.2923C110.771 21.0444 110.32 21.7303 109.742 22.3082C109.163 22.8862 108.47 23.3442 107.703 23.6545C106.937 23.9647 106.114 24.1208 105.283 24.1132V24.1132ZM105.283 9.69259C103.574 9.68242 101.9 10.1653 100.475 11.0797C99.0494 11.9941 97.9368 13.2989 97.2783 14.828C96.6199 16.3571 96.4454 18.0415 96.7771 19.667C97.1087 21.2926 97.9316 22.7857 99.1409 23.9567C100.35 25.1276 101.892 25.9235 103.569 26.243C105.246 26.5625 106.983 26.3912 108.56 25.751C110.136 25.1108 111.48 24.0305 112.422 22.6475C113.363 21.2646 113.859 19.6414 113.847 17.9844C113.872 16.8881 113.667 15.7983 113.245 14.7808C112.823 13.7633 112.193 12.8391 111.393 12.0642C110.593 11.2893 109.639 10.6796 108.588 10.272C107.538 9.86438 106.414 9.66728 105.283 9.69259" fill="white"/>
</g>
<defs>
<clipPath id="clip0_4475_119932">
<rect width="153" height="36" fill="white"/>
</clipPath>
</defs>
</svg>
